# xmcd
#
# Track frame offsets:
# 150
# 13301
# 26845
# 42117
# 56980
# 69973
# 80314
# 90149
# 102924
# 112628
# 126636
# 138814
# 150556
# 160888
#
# Disc length: 2302 seconds
#
#
# Revision: 0
# Processed by: cddbd v1.5.2PL0 Copyright (c) Steve Scherf et al.
# Submitted via: FreeRIP 2.90 
#
DISCID=a908fc0e
DTITLE=Country Classics - Country Classics
DYEAR=1900
DGENRE=country
TTITLE0=Linn Anderson - Rose garden
TTITLE1=Jimmy Deam - Big bad john
TTITLE2=Melba Montgomery - No charge
TTITLE3=Jeannie C Riley - Harper valley p t a
TTITLE4=Faron Young - It s four in the morning
TTITLE5=George Hamilton Iv - Abilene
TTITLE6=Hank Locklin - Please help me i m falling
TTITLE7=Claude King - Wolverton mountain
TTITLE8=Ned Miller - From ajack to a king
TTITLE9=Billie Jo Spears - Mr walker it s all over
TTITLE10=Porter Wagoner - A satisfied mind
TTITLE11=Wilma Burgess - Misty blue
TTITLE12=Johny Darrel - Ruby don t take your love to town
TTITLE13=Skeeter Davis - The end of the world
EXTD=
EXTT0=
EXTT1=
EXTT2=
EXTT3=
EXTT4=
EXTT5=
EXTT6=
EXTT7=
EXTT8=
EXTT9=
EXTT10=
EXTT11=
EXTT12=
EXTT13=
PLAYORDER=
